<?xml version="1.0" encoding="utf-8"?>
<!-- Generator: Adobe Illustrator 19.0.0, SVG Export Plug-In . SVG Version: 6.00 Build 0)  -->
<svg version="1.1" id="Layer_1" xmlns="http://www.w3.org/2000/svg" xmlns:xlink="http://www.w3.org/1999/xlink" x="0px" y="0px"
	 viewBox="0 0 1296.6 640.5" style="enable-background:new 0 0 1296.6 640.5;" xml:space="preserve">
<style type="text/css">
	.st0{fill:#98A4D3;}
	.st1{opacity:0.7;}
	.st2{fill:#9CA6D4;}
	.st3{fill:#B1B9DE;}
	.st4{fill:none;stroke:#B1B9DE;stroke-width:1.8891;stroke-miterlimit:10;}
	.st5{fill:#B9C0E1;}
	.st6{fill:#DCE3F3;}
	.st7{fill:#DEE0F1;}
	.st8{fill:#99A4D3;}
	.st9{fill:#87CDF1;}
	.st10{clip-path:url(#SVGID_1_);}
	.st11{fill-rule:evenodd;clip-rule:evenodd;fill:#BCC3E3;}
	.st12{fill:#C6CBE7;}
	.st13{fill:#EEB225;}
	.st14{fill:#425EAB;}
	.st15{fill:#5571B7;}
	.st16{fill:url(#XMLID_176_);}
	.st17{fill:#FFFFFF;}
	.st18{fill:url(#XMLID_177_);}
	.st19{fill:url(#XMLID_178_);}
	.st20{fill:#010101;}
	.st21{fill:#4756A6;}
	.st22{fill:url(#XMLID_179_);}
	.st23{fill:#F09CC3;}
</style>
<g id="XMLID_1_">
	<path id="XMLID_165_" class="st0" d="M295.9,572.2c-8,0-15.4,2.7-21.3,7.1c-1-22.6-19.6-40.6-42.5-40.6c-9.7,0-18.6,3.3-25.8,8.7
		c-4.8-21-23.6-36.7-46-36.7c-26.1,0-47.2,21.1-47.2,47.2c0,5.3,0.9,10.3,2.5,15C99.2,576.4,87,589.1,87,606.4
		c0,19.8,16.1,34.1,35.9,34.1c19.8,0,154.9,0,173,0c19.8,0,35.9-14.3,35.9-34.1C331.7,586.6,315.7,572.2,295.9,572.2z"/>
	<g id="XMLID_154_" class="st1">
		<g id="XMLID_162_">
			<path id="XMLID_164_" class="st2" d="M1006.8,587L891.2,470C891.2,470,934.7,616.1,1006.8,587z"/>
			<path id="XMLID_163_" class="st3" d="M1006.8,587L891.2,470C891.2,470,1036.8,515.3,1006.8,587z"/>
		</g>
		<line id="XMLID_161_" class="st4" x1="1056.6" y1="602.3" x2="874.3" y2="545.4"/>
		<g id="XMLID_158_">
			<path id="XMLID_160_" class="st5" d="M921.9,558.3l-164.1-51.1C757.7,507.2,867.6,627.5,921.9,558.3z"/>
			<path id="XMLID_159_" class="st6" d="M921.9,558.3l-164.1-51.1C757.7,507.2,913.1,481.3,921.9,558.3z"/>
		</g>
		<g id="XMLID_155_">
			<path id="XMLID_157_" class="st5" d="M1005,586.4L847,632.3C847,632.3,996.2,663.7,1005,586.4z"/>
			<path id="XMLID_156_" class="st6" d="M1005,586.4L847,632.3C847,632.3,956.2,525.8,1005,586.4z"/>
		</g>
	</g>
	<g id="XMLID_119_">
		<g id="XMLID_122_">
			<g id="XMLID_124_">
				<path id="XMLID_153_" class="st7" d="M279.3,458.5L279.3,458.5c0-15,12.2-27.2,27.2-27.2h66.3l39.7,54.4h-106
					C291.5,485.6,279.3,473.5,279.3,458.5z"/>
				<path id="XMLID_152_" class="st7" d="M262.1,511.8L262.1,511.8c0-14.4,11.6-26.1,26-26.3l119.4-1.7v52.5l-118.9,1.7
					C274,538.2,262.1,526.4,262.1,511.8z"/>
				<path id="XMLID_127_" class="st7" d="M267.8,562.6L267.8,562.6c0-14.5,11.8-26.3,26.3-26.3h113.4v52.5H294.1
					C279.6,588.9,267.8,577.1,267.8,562.6z"/>
				<path id="XMLID_126_" class="st7" d="M285,615.1L285,615.1c0-14.5,11.8-26.3,26.3-26.3h96.2l-15.6,52.5h-80.6
					C296.8,641.4,285,629.7,285,615.1z"/>
				<path id="XMLID_125_" class="st7" d="M376.8,641.4h22.3c0.2,0,0.4,0,0.6,0c27.1-0.1,53.3-10.1,75.4-25.7l0.9-0.6l1.5-133.4
					l-2-2.2c-30.7-33.4-63-48.3-103.5-48.3L376.8,641.4z"/>
			</g>
			<path id="XMLID_123_" class="st7" d="M388.2,453.5c-7.1,1.2-14.7-1.1-20-6.7l-22.5-24c-12.3-13.2-20.5-29.6-23.5-47.4l-1.8-15.1
				c-2.1-12.1,9.2-24.1,21.3-26.2c12.1-2.1,26.7,5.5,28.8,17.6l0,0c3,19.3,11.5,37.2,24.4,51.8c8.6,9.7,17.7,19.6,22,23.2
				c30.2,25.6,60.7,55.1,60.7,55.1S392.3,452.8,388.2,453.5z"/>
		</g>
		<rect id="XMLID_121_" x="476" y="473.1" class="st3" width="54.9" height="150.8"/>
		<rect id="XMLID_120_" x="506.1" y="458.5" class="st8" width="69.4" height="180"/>
	</g>
	<g id="XMLID_53_">
		<circle id="XMLID_118_" class="st9" cx="1106" cy="450.8" r="190.6"/>
		<g id="XMLID_54_">
			<defs>
				<circle id="SVGID_3_" cx="1106" cy="450.8" r="190.6"/>
			</defs>
			<use xlink:href="#SVGID_3_"  style="overflow:visible;fill:#E1E3F2;"/>
			<clipPath id="SVGID_1_">
				<use xlink:href="#SVGID_3_"  style="overflow:visible;"/>
			</clipPath>
			<g id="XMLID_55_" class="st10">
				<g id="XMLID_128_">
					<g id="XMLID_150_">
						<path id="XMLID_151_" class="st11" d="M1008.5,247.5c-4.4,0.6-9.7-0.9-11.7-3.4s-6-5.8-8.7-7.5c-2.7-1.7-6.9-4.7-9.3-6.6
							c-2.4-1.9-7.8-2.3-12-0.9l-8.9,3c-4.2,1.4-7.4,5.7-7,9.5c0.3,3.8-0.7,6.7-2.3,6.4c-1.6-0.3-4-1.3-5.3-2.3
							c-1.3-1-3.7-0.3-5.2,1.5c-1.5,1.8-1.1,4.6,0.9,6.3c2,1.7,4.8,2.8,6.2,2.6c1.4-0.2,2.1,1.4,1.5,3.7s-3.5,4-6.5,4
							s-6.6,1.2-7.9,2.9c-1.4,1.7-1.9,5.2-1.2,7.9c0.7,2.7,3.2,6.3,5.5,8.1s7.5,1.7,11.5-0.2l1.4-0.6c4-1.9,10.1-1.3,13.4,1.3
							c3.4,2.6,7.6,8,9.4,12.1l7.5,16.8c1.8,4,3.2,11,3.2,15.4l-0.2,10.1c-0.1,4.4-0.5,11.7-0.9,16.1l-0.2,2.6
							c-0.4,4.4,0.9,11.3,2.8,15.2l1.3,2.6c2,4,5.2,10.5,7.2,14.4l3.6,7.3c2,4,2.9,3.6,2.1-0.7l-0.6-3c-0.8-4.3,0.3-4.8,2.5-1
							l2.3,3.9c2.2,3.8,5.3,9.6,6.7,12.8c1.4,3.2,6,7,10.2,8.4l9.2,3.1c4.2,1.4,10.4,5,13.7,7.9l5.5,4.8c3.3,2.9,8.1,5.3,10.6,5.2
							c2.5,0,3.7,3.5,2.8,7.8l-0.6,2.6c-1,4.3-2,10.9-2.3,14.5c-0.3,3.7,1.5,9.6,4,13.3l0.9,1.2c2.5,3.6,7.2,8.5,10.3,10.8
							c3.2,2.3,5.8,7.8,6,12.2l0.5,18.1c0.1,4.4,0.3,11.7,0.4,16.1l0.3,14.5c0.1,4.4,0.9,11.6,1.8,15.9l1.1,5.4
							c0.9,4.3,4.4,9.5,7.8,11.5c3.4,2,8.4,3.1,11.1,2.5c2.7-0.6,2-3.3-1.6-5.9l-0.4-0.3c-3.6-2.6-6-7.6-5.4-10.9s1.6-9.7,2.1-14.1
							l0.2-1.4c0.6-4.4,3.9-10.1,7.5-12.8l4.1-3c3.6-2.6,7.9-8.1,9.7-12.2l4.3-9.7c1.8-4.1,6.3-8.3,10-9.5s7.7-5.6,8.8-9.9l2.4-9.6
							c1.1-4.3,2.9-10.6,3.9-14.1s-1-8.5-4.5-11.2l-21.3-16.1c-3.5-2.7-10-5.7-14.3-6.7l-24-5.7c-4.3-1-10.6-0.7-14.1,0.6
							c-3.4,1.4-8,2.5-10.1,2.5c-2.1,0-4.8-1.1-6-2.3s-1.9-4.2-1.5-6.5c0.3-2.3-2.4-4.2-6-4.3c-3.6,0-7.9-1.6-9.4-3.6
							c-1.5-2-4.8-5-7.3-6.8c-2.5-1.8-4-6.7-3.2-11s4.8-8.7,9.1-10l0.5-0.1c4.3-1.2,11.4-2.5,15.8-2.9c0,0,1.2-0.1,2.7,1.8
							c1.5,1.9,1.8,3.9,1.8,3.9c0.6,4.4,2.4,7.3,4.1,6.3s2.5-3.9,1.9-6.8c-0.6-2.8,1.2-7.9,4-11.3l0.9-1.1c2.8-3.4,7-9.1,9.3-12.6
							s7.6-7.7,11.7-9.3l1.1-0.4c4.1-1.6,9.9-4.2,12.8-5.8c2.9-1.6,2-4.4-2-6.2l-1.6-0.7c-4-1.9-5.8-5-4-6.9s6.8-2.7,11-1.6
							c4.2,1,8.7,0.5,10.1-1.3c1.3-1.7,0.4-6-2-9.6c-2.4-3.6-4.8-9.4-5.3-13.1c-0.5-3.6-2.5-4.4-4.3-1.8c-1.8,2.6-3.7,2.1-4.1-1.1
							s-3.4-7.6-6.6-9.7s-7.3-0.6-9.1,3.3c-1.8,3.9-2.9,8.8-2.5,10.8c0.4,2.1-0.9,4.8-2.9,6.2c-2,1.4-4.2,5.2-4.9,8.4
							c-0.7,3.3-2,4.4-3,2.5c-0.9-1.9-1.4-5.1-1-7.1c0.4-2-2.1-6-5.6-8.7l-5-4c-3.5-2.8-5.7-6.8-5-9c0.7-2.2,3.9-5.8,7.1-8
							s8-6,10.7-8.3s6.8-5,9-5.9c2.3-0.9,3.5-3.8,2.8-6.3s-4.9-4.5-9.3-4.5c-4.4,0.1-9.6,1.5-11.6,3.2s-7,1.7-11.1,0.1l0,0
							c-4.1-1.6-10.2-4.5-13.5-6.5s-8.6-6-11.9-9l-4.2-4c-3.2-3-9.5-5-13.9-4.4L1008.5,247.5z"/>
					</g>
					<g id="XMLID_148_">
						<path id="XMLID_149_" class="st11" d="M1137.7,318.7c-1.5-1.1-3.8-5.5-5.1-9.8l-2.3-7.3c-1.3-4.2-0.6-10,1.6-12.8
							c2.2-2.8,2.4-6.9,0.5-9c-1.9-2.1-3-7.5-2.5-11.9l0.5-4.3c0.5-4.4-0.3-9-1.9-10.3s-5.3-2.2-8.4-2.1c0,0,0,0,0.2-0.3
							c0.2-0.3,0.2-0.3,0.2-0.3c-1.9-3.8-3.5-8.4-3.6-10.3c0-1.9,2.5-4.1,5.6-4.9c3.1-0.8,5.9-2.9,6.3-4.7s3.9-4.9,7.9-6.8l7.7-3.7
							c4-1.9,9.2-2.1,11.6-0.3s6.2,0.9,8.4-1.9c2.2-2.8,7.2-5.4,11.1-5.7c3.9-0.3,9.2,1.6,11.8,4.2s3.3,6.6,1.8,9s0.2,4.2,4.1,4.1
							c3.8-0.1,5.1,2.9,2.8,6.7l-1.6,2.6c-2.3,3.8-4.8,10.5-5.5,14.8l-0.6,3.4c-0.8,4.4-2.4,11.4-3.6,15.7l-1.6,5.6
							c-1.2,4.3-5.3,9.6-9.1,11.8l-9.9,5.8c-3.8,2.3-9.2,6.9-12,10.4l-6.5,8C1142.7,317.9,1139.2,319.8,1137.7,318.7z"/>
					</g>
					<g id="XMLID_146_">
						<path id="XMLID_147_" class="st11" d="M1099.2,237c2.3,2.8,6.3,2.2,8.9-1.4l4.5-6.2c2.6-3.6,7.9-8.3,11.7-10.5l5.5-3.1
							c3.8-2.2,9.2-6.4,12-9.3c2.8-2.9,3-6.8,0.6-8.6c-2.4-1.8-7.4-3.4-11.1-3.6c-3.7-0.1-10.1,0.9-14.3,2.4l-5,1.7
							c-4.2,1.4-9.6,5-12,7.9c-2.4,2.9-4.4,8.9-4.6,13.3l-0.1,4.4C1095.2,228.3,1097,234.2,1099.2,237z"/>
					</g>
					<g id="XMLID_144_">
						<path id="XMLID_145_" class="st11" d="M1073.6,234.1c1.3,0.3,3.6-1.5,5.1-3.8c1.5-2.4,0.3-5-2.8-5.9s-5.3,0.9-5.1,3.8
							C1071.1,231.2,1072.3,233.9,1073.6,234.1z"/>
					</g>
					<g id="XMLID_142_">
						<path id="XMLID_143_" class="st11" d="M1081.4,259.2c-0.5-1.4,0.4-5.2,2-8.5s6.4-4.9,10.6-3.6l2.5,0.7
							c4.2,1.3,9.2,5.6,11.1,9.6l2.7,5.9c1.8,4,3.8,10.8,4.4,15.1c0.6,4.3-1,8.4-3.6,9.1s-6.5-0.7-8.7-3.1c-2.2-2.4-2.6-5.9-1-7.8
							s2.1-5.7,1.1-8.5s-5.6-5.3-10-5.7l-2.2-0.2C1085.9,262.1,1081.9,260.6,1081.4,259.2z"/>
					</g>
					<g id="XMLID_140_">
						<path id="XMLID_141_" class="st11" d="M1053.5,258.7c3.3-0.7,5.5-2.6,4.7-4.4c-0.8-1.7-0.3-5.2,1-7.7c1.3-2.5,1.5-5,0.4-5.7
							c-1.1-0.6-2.9,0.6-4.1,2.6c-1.1,2.1-3.4,2-5.1-0.2s-3.7-6-4.5-8.4s-3.2-5-5.2-5.6c-2-0.7-5.5,0.7-7.7,3.1
							c-2.3,2.4-4.4,5.8-4.8,7.6c-0.4,1.8,1.1,3.4,3.3,3.6c2.2,0.2,4,1.5,4,3s-0.5,3.4-1.1,4.1c-0.7,0.8,2,3.2,5.9,5.3l0.1,0
							C1044.2,258.1,1050.2,259.3,1053.5,258.7z"/>
					</g>
					<g id="XMLID_138_">
						<path id="XMLID_139_" class="st11" d="M1049.9,231.6L1049.9,231.6c0.3-3.8,1.7-8.1,3.2-9.4c1.5-1.3,3.6-1.8,4.6-1.1
							s2.2,3.2,2.7,5.5s2,2,3.5-0.6c1.5-2.7,3.2-2.8,3.8-0.4s-0.2,5.9-1.7,7.6c-1.5,1.7-6,1.7-10.1-0.1
							C1056,233.2,1049.5,230.3,1049.9,231.6z"/>
					</g>
					<g id="XMLID_136_">
						<path id="XMLID_137_" class="st11" d="M1070.6,253.7c0.9,0.9,0.9,0.9,0.9,0.9c1.5-3.9,2.8-8.8,3-11c0.1-2.2-1.3-4-3.2-4.1
							s-4.9,1.5-6.6,3.6s-2.7,5.7-2.1,8.2s2.6,4.4,4.5,4.2s3.4-0.4,3.4-0.4"/>
					</g>
					<g id="XMLID_134_">
						<path id="XMLID_135_" class="st11" d="M1431.3,531.5c-1.4-1.5-2.2-4.2-1.8-5.9c0.4-1.8,0.5-5.9,0.3-9.1s-0.6-9.6-0.6-14
							c0,0-0.1-3.8,1.1-4.1c1.2-0.3,10.6-2.2,11.7-2.4c1.1-0.2,4.2-2.8,4.2-2.8c3.4-2.9,8.9-7.5,12.4-10.3c0,0,1-0.8,1.7,0.1
							c0.7,0.9,0.7,0.9,0.7,0.9c2.5,1.3,6.1,0.3,8-2.1c2-2.4,4.7-4.1,6.1-3.8c1.4,0.3,2.5,2.1,2.4,4c0,1.9,2.1,5,4.7,6.9
							c2.6,1.9,6,0.1,7.5-3.9c1.5-4,3.7-5.1,4.9-2.3c1.2,2.8,2.7,8.6,3.2,13c0,0,0.8,5.9,1.7,5.8c0.9-0.1,2.3,0.3,2.3,0.3
							c4.3,1,7.6,5.5,7.3,9.9l-0.1,1.8c-0.3,4.4-2.1,11.3-3.9,15.4l-2.5,5.4c-1.8,4-5.5,8.6-8,10.1c-2.6,1.5-7.6,1.6-11.2,0.2
							s-7.6-5.4-8.8-8.9c-1.2-3.4-3.2-6.5-4.6-6.8c-1.3-0.3-4.7-1.2-7.6-1.9c-2.9-0.8-8.7-0.3-12.9,1l0,0c-4.2,1.4-9.4,3.4-11.6,4.5
							C1435.7,533.3,1432.7,533,1431.3,531.5z"/>
					</g>
					<g id="XMLID_129_">
						<path id="XMLID_130_" class="st11" d="M1434.9,322.5c-1.7-1-2.3-2.1-1.3-2.5c1-0.4,1.7-1.8,1.6-3.1c-0.1-1.3,1.6-2.4,3.7-2.4
							c2.1,0,3.7-2.4,3.5-5.3c-0.2-2.9-3-6.9-6.1-8.9c0,0,0,0,0-0.6c0-0.6-13-3.7-13.4-3.8c-0.4-0.1-17.3-0.6-18.4-0.4
							c-1.1,0.2-1.1,0.2-1.1,0.2c-0.6,3.3-4.4,7-8.5,8.2c-4,1.2-9.3,0.4-11.6-1.9c-2.4-2.2-7.5-2.3-11.4-0.1c0,0-1.4,0.8-1.8,1.4
							c-0.4,0.6-1.6-0.4-1.6-0.4c-3.5-2.7-9.4-4.7-13.1-4.5c-3.7,0.2-7.4,1-8.4,1.8c-1,0.8-1.5,3-1.2,4.8c0.3,1.8-1.9,3.3-5,3.3
							s-5.2,1.4-4.8,3c0.4,1.7-0.8,2.3-2.7,1.3s-4.1-3.1-4.9-4.8c-0.8-1.7-3.7-3-6.5-3s-5.7,1-6.6,2.2c-0.8,1.2-2.2,1.5-3.1,0.7
							c-0.9-0.8-4.4-0.9-7.8-0.3c-3.4,0.6-7.5,2.5-9.2,4.3c-1.6,1.7-2.6-0.5-2.2-4.9l0.1-1.1c0.4-4.4-1.7-10.2-4.9-12.8
							c0,0,0,0-0.5-0.3c-0.5-0.3-0.5-0.3-0.5-0.3c-4.1-0.9-8.7,0.1-10.4,2.4s-5.9,6.2-9.4,8.7c-3.6,2.5-6.4,6.9-6.4,9.6
							c0.1,2.7-1.9,5.6-4.4,6.4s-1.8,3.8,1.5,6.8c3.3,2.9,5.3,6.1,4.4,7.1c-0.9,1-2.9,0.2-4.5-1.8s-5-3-7.6-2.4
							c-2.6,0.6-2.8,3.9-0.6,7.3c2.3,3.4,3.3,9.7,2.2,14c0,0-1.1,4.3-1.4,4.4c-0.3,0.1-0.3,0.1-0.3,0.1c-1.4-2.4-5.1-5.9-8.1-7.7
							c-3.1-1.8-8.4-2.4-11.9-1.3c-3.5,1.1-9.9,2.8-14.2,3.9l-4,1c-4.3,1.1-9.4,5-11.4,8.8c-2,3.8-5.5,8.2-7.7,9.9c0,0,0,0-0.5,0
							c-0.5,0-0.5,0-0.5,0c-1.3-2.5-0.7-5.5,1.3-6.8s2.8-4,1.7-6.2c-1.1-2.2-4.7-4.3-7.8-4.7c-3.2-0.4-7.4-4-9.4-7.9
							c0,0,0,0,0.3,0.1c0.3,0.1-5.5,0.6-5.5,0.6c-4.4,0.4-10.1,3.5-12.7,6.8c-2.6,3.3-6.7,9.1-9.2,12.8l-1.8,2.7
							c-2.5,3.7-5.2,7.6-6.1,8.7c-0.9,1.1-1.8,3.8-1.9,6s0.4,4.7,1.2,5.6c0.8,0.9,3.2,1.4,5.2,1.2c2-0.2,4.3,1.3,5,3.3
							c0.7,2.1,2.1,4,3,4.3c0.9,0.3,2.9-1.4,4.5-3.7c1.6-2.3,2.8-5.5,2.7-7.2c-0.1-1.6-0.8-4.2-1.5-5.8c-0.7-1.5-0.2-3.8,1.2-5.2
							c1.3-1.3,2.8-4.2,3.3-6.4c0.5-2.2,2.6-3.9,4.6-3.9c2,0,2.3,1.9,0.6,4.1c-1.7,2.2-3,5.6-2.9,7.4c0.1,1.8,1,4.4,2.1,5.8
							c1.1,1.4,4.3,2,7.1,1.4c2.8-0.6,4.8-0.6,4.4,0c-0.5,0.6-2.8,2.7-5.1,4.7c-2.4,2-5.3,5.6-6.4,8.2c-1.2,2.5-3.6,4.6-5.5,4.6
							c-1.8,0-4.5,0.4-6,1c-1.5,0.5-4.2,0.6-6.2,0.2c-1.9-0.4-3.4-2.9-3.3-5.4c0.1-2.6-0.5-4-1.3-3.1c-0.8,0.8-1.6,3.4-1.6,5.6
							c-0.1,2.3-2,4.6-4.4,5.2c0,0,0,0-0.4,0.2c-0.4,0.2-0.4,0.2-0.4,0.2c-0.9,2.9-3.3,6.2-5.2,7.3s-4,2.7-4.6,3.4
							c-0.7,0.7-3.2,1.1-5.7,0.9c0,0,0,0,0.3,0.4c0.3,0.4,0.3,0.4,0.3,0.4c-1.2,0.7-0.8,2.5,0.9,4c1.7,1.5,2.7,4.1,2.3,5.6
							c-0.4,1.6-2.7,2.8-5.1,2.7c-2.4-0.1-5.4,0.1-6.7,0.3c-1.2,0.3-2.5,2.8-2.8,5.6c-0.3,2.8-0.4,6.3-0.3,7.7
							c0.1,1.4,1.1,2.5,2.1,2.5c1,0,2.5,0.4,3.3,0.9c0.8,0.5,2.1,0.4,2.9-0.1c0.8-0.6,2.4-1,3.4-1s2.5-0.2,3.4-0.5s1.5-1.2,1.5-2.1
							s0.6-2.4,1.2-3.4c0.7-1,2.1-2.8,3.3-3.9c1.1-1.1,2.6-2.8,3.4-3.6c0.8-0.9,2.4-1.1,3.6-0.5s2.8,0.4,3.6-0.4
							c0.8-0.8,1.9-1.8,2.4-2.2c0.6-0.4,1.8,0.3,2.8,1.4c1,1.2,2.8,2.9,4,3.8c1.2,0.9,3,2.1,4.2,2.7c1.1,0.5,2.1,2.2,2.1,3.7
							c0,1.5-0.3,2.9-0.7,3s-0.9,0.7-1.2,1.1c-0.2,0.5,0.6,0.4,1.8-0.1c1.2-0.5,2.3-2.2,2.4-3.8c0.1-1.6,0.8-2.4,1.7-1.8
							s1.5,0.5,1.6-0.2s-1.3-1.7-2.9-2.4c-1.6-0.6-4.2-2.7-5.7-4.5c-1.5-1.9-2.7-4.1-2.8-5c0-0.9,0.7-1.2,1.5-0.8
							c0.9,0.4,2.2,1.3,2.9,2c0.7,0.7,2.8,2.1,4.6,3.3c1.8,1.2,3.6,3.1,3.9,4.3c0.3,1.2,2,4.2,3.7,6.7c1.7,2.5,3.8,4.3,4.6,4
							c0.8-0.3,1.3-1.5,1.1-2.7c-0.2-1.2-0.7-3-1-4c-0.4-0.9,0.3-2.3,1.4-3.1c1.2-0.7,2.6-0.8,3.2-0.1c0.6,0.7,1.3,2.6,1.5,4.1
							c0.2,1.6,1.6,3.8,3.1,4.9c1.5,1.1,3.6,2.2,4.8,2.5s3.2-0.2,4.6-1c1.4-0.8,3.6-1.5,5.1-1.5s1.9,3.2,1.1,7.1c0,0,0,0-0.2,0.6
							c-0.2,0.6-0.2,0.6-0.2,0.6c-2.6,2.6-7.4,4.9-10.6,5.1c-3.2,0.2-7.5-0.3-9.4-1.3c-2-0.9-5-1.1-6.7-0.4s-2.9,2.6-2.7,4.3
							c0.2,1.6-0.6,2.9-1.9,2.9s-3.4-1.4-4.8-3c-1.4-1.7-3.9-3.6-5.6-4.2c-1.7-0.7-4.5-1.9-6.2-2.6c-1.7-0.8-2.5-2.9-1.7-4.8
							c0.8-1.8-1.3-3.3-4.6-3.3s-8,0.9-10.5,2c-2.5,1.1-6.1,2.1-8.1,2.2s-4.5-0.1-5.5-0.4c-1.1-0.3-3.3,0.7-4.9,2.4
							s-2.9,3.8-2.9,4.8c0,1-0.6,3.4-1.4,5.3s-2.6,3.7-4.1,4c-1.5,0.3-4.7,3.3-7.2,6.7c0,0,0,0-0.6,0.7c-0.6,0.7-0.6,0.7-0.6,0.7
							c-1.5,3.1-2.3,6.4-1.6,7.3c0.6,0.9,1,3.2,0.9,5.1c-0.1,1.9-1.9,4.7-3.9,6.3c0,0,0,0,0.2,0.7c0.2,0.7,0.2,0.8,0.2,0.8
							c2.6,3.6,5.4,7,6.3,7.6c0.9,0.5,2,2,2.4,3.3s3.3,4.3,6.3,6.8c3,2.5,6.2,4,7,3.4c0.9-0.6,2.7-0.9,4.1-0.8
							c1.4,0.2,3.8,0.1,5.3-0.2s4.2-1.3,5.9-2.2c1.7-0.9,4-1.4,5-1.1c1.1,0.3,2.8,1.5,3.9,2.7c1.1,1.1,3.2,2,4.7,2s3,1,3.4,2.3
							c0.4,1.3,0.3,3.9-0.2,5.7c-0.5,1.9-0.1,4.4,0.9,5.7c1,1.3,3.3,5.6,5.1,9.7l0.8,1.8c1.8,4.1,2.6,8.2,1.7,9.2s-2.5,3.8-3.8,6.3
							c0,0,0,0-0.3,1c-0.3,1,4,15,4,15c1.3,4.2,3.4,10.3,4.7,13.4c1.3,3.1,3.1,7.2,4.1,9c1,1.8,5.2,2.1,9.4,0.7l3.2-1.1
							c4.2-1.4,9.6-5.5,12.1-9c2.5-3.5,5.9-7,7.5-7.9c1.6-0.8,2.7-3.7,2.4-6.4c-0.3-2.7,2-7.5,5.1-10.6l0.1-0.1
							c3.1-3.1,5.7-7.9,5.7-10.7c0-2.7-0.1-7.6-0.3-10.7c-0.2-3.2,2.2-8.4,5.3-11.6l1.5-1.5c3.1-3.2,7.4-8.9,9.7-12.7l3.7-6.2
							c2.3-3.8,1.1-6.4-2.6-5.8c0,0,0,0-0.4,0.3c-0.4,0.3-0.4,0.3-0.4,0.3c-3.1,1-6.6,0.9-7.6-0.4c-1-1.2-4.4-4.8-7.5-8l-1.2-1.2
							c-3.1-3.2-6.6-8.1-7.7-11s-3.1-7.2-4.3-9.5c-1.2-2.3-1.6-4.7-0.9-5.3s1.9-0.5,2.5,0.4s3.1,4.6,5.5,8.3c0,0,1.8,2.9,1.9,3.7
							c0,0.7,7.3,11.9,7.3,11.9c2.4,3.7,7.7,5.7,11.6,4.4c4-1.3,9.9-3.8,13.1-5.6c3.2-1.8,6.8-4.4,7.9-5.8c1.1-1.4,1.5-3.8,0.7-5.2
							c-0.7-1.5-2.4-4-3.7-5.7s-4.4-2.2-6.9-1.2c-2.5,1-5.8,0.2-7.2-1.8s-3.5-4.3-4.7-5.1c-1.1-0.9-1-2.1,0.3-2.8s4.3,0.5,6.7,2.6
							c2.4,2.1,5.6,3.7,7.2,3.6c1.6-0.2,3.3,0.2,3.9,0.9c0.5,0.6,4.5,1.3,9,1.4l0.8,0c4.4,0.1,9.3,1.6,10.8,3.2
							c1.5,1.7,3.7,4,4.8,5.3c1.1,1.3,3,1.8,4,1.1s3.5,2.1,5.4,6.1l6.6,13.9c1.9,4,4.3,5.9,5.3,4.1c1-1.7,2.6-5.6,3.6-8.6
							c1-3,4-8,6.8-11.1c2.7-3.1,6.8-6,9.1-6.4c2.3-0.4,5.9,2.3,7.9,6.1c2,3.8,5.2,6.4,7.1,5.8s3.7,1.2,4.1,4.1
							c0.3,2.9,0.6,6.8,0.7,8.8s1.1,5,2.3,6.6c1.2,1.6,2.7,4.2,3.2,5.6c0.5,1.4,2.3,3.6,4.1,4.8c1.7,1.2,2.8,0.2,2.3-2.3
							c-0.5-2.5-2.2-5.6-3.9-6.9c-1.6-1.3-3.6-3.3-4.4-4.6c-0.8-1.2-0.8-3.8-0.1-5.7c0.7-1.9,3.3-1.3,5.8,1.2
							c2.4,2.6,5.8,4.2,7.5,3.7s3.6-4,4.2-7.7c0.7-3.7-0.3-7.8-2-9c-1.8-1.2-3-3.8-2.8-5.7c0.2-1.9,2.4-3.8,4.9-4.2
							c2.5-0.4,7.5-2.6,11.2-5l0.7-0.4c3.7-2.4,7.5-5.6,8.5-7.1c0.9-1.5,1.5-4.9,1.3-7.5s-1.8-7.4-3.6-10.7
							c-1.7-3.3-2.3-7.1-1.1-8.6c1.1-1.5,0.8-2.3-0.8-1.8c-1.6,0.5-3.8,0.1-5-1s-0.2-4.5,2.2-7.7c0,0,0,0,0.4-0.7
							c0.4-0.7,0.4-0.7,0.4-0.7c1,1.1,2.2,2.6,2.6,3.3c0.4,0.8,1.9,1.2,3.3,0.9c1.4-0.3,3.3,0.3,4.3,1.2c1,0.9,2,2.4,2.4,3.3
							c0.3,0.9,1.2,3,2,4.7s2.2,2.8,3.2,2.5c1-0.3,1.8-1.7,1.9-3.1s-0.7-3.9-1.7-5.7s-1.9-4.8-1.9-6.6s0.7-4.5,1.4-5.9
							c0.8-1.4,2.4-2.4,3.6-2.1s3.5-2.8,5.2-6.9l0.9-2.3c1.7-4.1,2.4-11,1.5-15.3l-1.3-6.3c-0.9-4.3-4.9-8.5-9-9.1s-6.2-4.6-4.7-8.8
							l0.9-2.5c1.5-4.2,6.1-8.9,10.2-10.5c0,0,6.8-2.6,6.7-2.6c-0.1,0-0.1,0-0.1,0c1.8,1.4,4.5,1.5,6,0.3c1.6-1.2,2.2-2.2,1.5-2.2
							s-1.6-1.9-1.8-4.1c-0.2-2.2,0.4-4.6,1.5-5.2c1.1-0.6,3.2-0.4,4.7,0.6c1.5,0.9,2.8,0.5,2.8-0.9c0-1.4,0.7-3.5,1.5-4.7
							s1.7-0.9,2.1,0.5c0.4,1.4,0.5,3.9,0.4,5.6c-0.2,1.6-1,6.5-1.8,10.8c0,0-1.1,5.5-1.4,5.1c-0.3-0.5,1.7,5.4,1.7,5.4
							c1.4,4.2,4.4,10,6.6,12.9c2.2,2.9,4.2,1.7,4.5-2.8l0.2-4.6c0.2-4.4-1-10.7-2.8-14c-1.8-3.3-2.8-7.2-2.3-8.8
							c0.5-1.5,2-3,3.2-3.4c1.3-0.3,3.4-0.3,4.7,0c1.3,0.3,3.2-2.9,4.2-7.2c0,0,0.9-3.7,1.1-4.1c0.2-0.4,0.2-0.4,0.2-0.4
							c3.4-2.3,5.1-5.5,3.9-7C1439,325.5,1436.6,323.5,1434.9,322.5z M1196.5,435.4c-4.4-0.7-8.7-2.1-9.6-3.1c-0.9-1-0.9-3.5,0-5.5
							c0.9-2.1,3.7-5,6.2-6.5s5.9-1,7.6,1.1s4.1,6.6,5.2,9.8c1.1,3.3-1.5,5.4-5.9,4.7L1196.5,435.4z M1233.6,443.5
							c-2.2-0.3-4.4-0.8-4.8-1c-0.4-0.2-2-3.7-3.5-7.9l-1.1-3c-1.5-4.2-1.6-9.9-0.2-12.7c1.4-2.8,3-2.6,3.4,0.6
							c0.5,3.2,2,7.4,3.5,9.4c1.4,2,3.5,6.2,4.7,9.4C1236.7,441.5,1235.8,443.8,1233.6,443.5z"/>
					</g>
				</g>
			</g>
		</g>
	</g>
	<path id="XMLID_52_" class="st12" d="M112.3,539.2c-0.6,0-1.4,0-2.3,0.1c2.1-12.1-5.1-26.5-21.1-26.5c-2.8,0-5.3,0.5-7.6,1.3
		c-6-6.7-14.7-11-24.4-11c-18.1,0-32.7,14.6-32.7,32.7c0,1.2,0.1,2.4,0.2,3.5c-0.5,0-1.1-0.1-1.6-0.1c-12.5,0-22.7,9.7-22.7,22.2
		c0,12.5,10.1,22.2,22.7,22.2h89.6c12.5,0,22.7-9.7,22.7-22.2C134.9,548.8,124.8,539.2,112.3,539.2z"/>
	<path id="XMLID_50_" class="st13" d="M671.2,316.8l16.8,10.4l2.9-3.2l1-0.5c6.4-3.2,12-7.9,16.2-13.7l3.2-4.4
		c1.3-2,0.8-4.6-1.2-5.9c-2-1.3-4.6-0.8-5.9,1.2l6.5-9.8c1.3-2,0.8-4.6-1.2-5.9l0,0c-1.6-1.1-3.6-0.9-5,0.3l1.5-2.2
		c1.3-2,0.8-4.6-1.2-5.9c-1.9-1.3-4.6-0.8-5.9,1.2l-1.9,2.8c0.5-1.7-0.1-3.6-1.7-4.7c-2-1.3-4.6-0.8-5.9,1.2l-9.3,14.1l0.3-2.7
		c0.1-2.1-1.4-3.8-3.5-3.8c-2,0-3.3,1.6-3.3,3.6L671.2,316.8z"/>
	<path id="XMLID_49_" d="M533.8,269.7V311c0,10.1,8.2,18.3,18.3,18.3c10.2,0,18.4-8.3,18.3-18.5l-0.4-41.1H533.8z"/>
	<path id="XMLID_48_" d="M627.5,622.4l-9.3,19h58.7l0,0c-1.8-7.1-8.7-11.7-16-10.6l-7,1.1c-4.9,0-8.2-5-6.3-9.5l0,0H627.5z"/>
	<path id="XMLID_47_" d="M677,622.4l-9.3,19h58.7l0,0c-1.8-7.1-8.7-11.7-16-10.6l-7,1.1c-4.9,0-8.2-5-6.4-9.5l0,0H677z"/>
	<path id="XMLID_46_" class="st14" d="M670.9,624.1l-15.2-133.6l-59.6-30.2l-67.6,36.5l-18.9-29l73.7,8.2l99-22.4
		c8.1,3.1,14,10.4,15.5,19l7.9,151.6H670.9z"/>
	<path id="XMLID_45_" class="st15" d="M646,456.8c7.4,3.9,12.3,11.2,13.1,19.6l-2.8,147.8h-32.4l-11-126c0,0-60.5,14.8-102,14.8
		c-18.2,0-38.2-17.1-38.2-38.2v-6.8L646,456.8z"/>
	<linearGradient id="XMLID_176_" gradientUnits="userSpaceOnUse" x1="414.6632" y1="394.7785" x2="691.3664" y2="394.7785">
		<stop  offset="0" style="stop-color:#57C9E7"/>
		<stop  offset="1" style="stop-color:#4495D1"/>
	</linearGradient>
	<path id="XMLID_44_" class="st16" d="M564.6,316.3h-61.8c-16.1,0-31,8.7-38.9,22.7L418,408c-6.8,10.2-2.8,24,8.3,29.1l63.9,29
		l12.2-28.1l-42.1-18.4c-4.2-1.8-5.6-7.1-2.8-10.8l15.1-20.2V476l109.5-13l-8.3-98.4l44.4,41.3c9.7,9.9,26.1,7.4,32.5-4.9l40.6-73.6
		l-22.7-13.8l-32.8,56l-39.4-39.9C588,321.1,576.5,316.3,564.6,316.3z"/>
	<path id="XMLID_43_" class="st13" d="M578.7,240.4c0.3-17.2-17.9-37.9-42.3-38c-14.9,0-28.5,8.3-36.4,20.9l-1,1.7
		c-6.4,10.3-8,22.9-4.5,34.5l12.3,36.3l0.9,21.5l5.8,3.8c9.5,6.2,22,4.6,29.7-3.8l0,0l-0.8-23.2l16.3,0c11.4-0.2,20.6-9.5,20.6-20.9
		V273l0-15.4L578.7,240.4z"/>
	<path id="XMLID_42_" class="st17" d="M561.6,271.8c0,5.1-4.1,9.2-9.2,9.2c-5.1,0-9.2-4.1-9.2-9.2"/>
	<g id="XMLID_37_">
		<path id="XMLID_41_" class="st13" d="M526.9,478.4L526.9,478.4c-0.8,2.3-3.3,3.6-5.6,2.9l-18.5-6l-3.4-10.4l24.7,8
			C526.4,473.6,527.7,476.1,526.9,478.4z"/>
		<path id="XMLID_40_" class="st13" d="M533.6,470.9L533.6,470.9c-0.7,2.3-3.2,3.6-5.5,2.9l-28.7-9l2.7-8.4l28.6,8.9
			C533.1,466.1,534.4,468.6,533.6,470.9z"/>
		<path id="XMLID_39_" class="st13" d="M532.4,461.5L532.4,461.5c-0.8,2.3-3.3,3.6-5.6,2.9l-24.7-8l2.7-8.4l24.7,8
			C531.8,456.7,533.1,459.2,532.4,461.5z"/>
		<path id="XMLID_38_" class="st13" d="M523.4,449.3L523.4,449.3c-0.8,2.3-3.3,3.6-5.6,2.9l-13-4.2l2.7-8.4l13,4.2
			C522.9,444.4,524.1,447,523.4,449.3z"/>
	</g>
	<path id="XMLID_36_" class="st13" d="M512.5,441.1l-5-1.6c-2.2-0.7-4.5-0.9-6.8-0.7l-4.9,0.5l-7.8,22.2l0.2,0.5
		c3.2,7,9.3,11.6,16.6,13.9l-0.1,0.7L512.5,441.1z"/>
	<linearGradient id="XMLID_177_" gradientUnits="userSpaceOnUse" x1="568.5861" y1="459.7675" x2="691.6601" y2="459.7675">
		<stop  offset="0" style="stop-color:#57C9E7"/>
		<stop  offset="1" style="stop-color:#4495D1"/>
	</linearGradient>
	<path id="XMLID_35_" class="st18" d="M691.7,465.9H568.6l0,0c0-6.8,5.5-12.4,12.4-12.4h110.7V465.9z"/>
	<linearGradient id="XMLID_178_" gradientUnits="userSpaceOnUse" x1="597.9777" y1="420.5854" x2="741.0368" y2="420.5854">
		<stop  offset="0" style="stop-color:#57C9E7"/>
		<stop  offset="1" style="stop-color:#4495D1"/>
	</linearGradient>
	<path id="XMLID_34_" class="st19" d="M716.1,465.4h-108c-6.4,0-11.2-5.9-9.9-12.2l14.8-69.4c1-4.7,5.1-8,9.9-8h108
		c6.4,0,11.2,5.9,9.9,12.2L726,457.4C725,462,720.9,465.4,716.1,465.4z"/>
	<circle id="XMLID_33_" class="st17" cx="669.5" cy="420.6" r="9.3"/>
	<path id="XMLID_32_" d="M498.8,329.3c10.2,0,18.4-8.3,18.3-18.5l-0.6-59.7l0,0c17.4,0,34.5-4.6,49.5-13.3l13.2-7.7
		c0,0,0-3.2-2.2-9.5c-8.5-24.7-33.9-36.4-58.3-30.3c-22.6,5.6-38,25.7-38.3,47.4V311C480.5,321.1,488.7,329.3,498.8,329.3
		L498.8,329.3z"/>
	<circle id="XMLID_31_" class="st13" cx="513.2" cy="258.8" r="8.5"/>
	<path id="XMLID_30_" class="st20" d="M988.8,301.6l6.5,16.8L947.2,344l0,0c-1.6-6.6,2-13.4,8.5-15.6l6.2-2.2c4-2.1,14-13,10.5-15.8
		L988.8,301.6z"/>
	<path id="XMLID_25_" class="st21" d="M1111.6,309.5l-80.9-59.3l-30.9,61.1l-33.6,1.9l44.7-97.7c5.2-11.5,19.1-16.1,30.2-10.1
		l89.9,48.5L1111.6,309.5z"/>
	<path id="XMLID_24_" class="st20" d="M1130.6,533l13,15.3l-53.7,13.7l0,0c0-6.9,5.2-12.7,12.1-13.4l6.7-0.7
		c4.5-1.1,6.4-6.5,3.6-10.2l0,0L1130.6,533z"/>
	<path id="XMLID_23_" class="st15" d="M1204.6,279.3v6.9c0,21.4-17.3,38.7-38.7,38.7l0,0l-59.4,75.1l29.9,130.9l-30.6,8.3
		l-40.5-141.7c-1.9-6.7-1.3-13.9,1.7-20.3l46.5-98H1204.6z"/>
	<linearGradient id="XMLID_179_" gradientUnits="userSpaceOnUse" x1="984.8779" y1="216.327" x2="1243.4902" y2="216.327">
		<stop  offset="0" style="stop-color:#57C9E7"/>
		<stop  offset="1" style="stop-color:#4495D1"/>
	</linearGradient>
	<path id="XMLID_22_" class="st22" d="M1111.6,125.9h62.5c16.3,0,31.3,8.8,39.4,22.9l24.3,53.5c3.8,8.3,5.7,17.4,5.7,26.5v80.8h-29
		v-82.9l-9.9-27.5v88.4h-95.7l-6.8-112.7l-44.9,41.8c-9.8,10-26.5,7.5-32.9-4.9l-39.5-76.4l19.7-12.1l34.9,56.7l39.9-40.4
		C1087.9,130.7,1099.5,125.9,1111.6,125.9z"/>
	<path id="XMLID_20_" class="st13" d="M1097.3,55c-0.3-17.4,18-38.2,42.5-38.4c15.2-0.1,29.2,8.4,37.2,21.3l1,1.6
		c6.5,10.4,8.1,23.1,4.6,34.9l-12.5,30.8l-0.8,20.7l-0.7,0.6c-10,9.3-25.6,9-35.2-0.6l0,0l0.8-22.3l-16.5,0
		c-11.6-0.2-20.9-9.6-20.9-21.2v-0.2l0-9.6L1097.3,55z"/>
	<path id="XMLID_19_" class="st20" d="M1162.2,62.7l-13.5-22.7l-50,0.4l0,0c0-16.1,14.1-30.7,22.9-35.2c9.9-5,21.5-6.6,33.1-3.7h0
		c27.7,6.9,43.2,36.4,33,63.1c-3.4,8.9-7.6,20.9-14.1,31.9L1162.2,62.7z"/>
	<circle id="XMLID_18_" class="st13" cx="1161.3" cy="66.5" r="10.7"/>
	<path id="XMLID_17_" class="st17" d="M1114.6,80.8c0,5.2,4.2,9.3,9.3,9.3c5.2,0,9.3-4.2,9.3-9.3"/>
	<g id="XMLID_10_">
		<g id="XMLID_12_">
			<path id="XMLID_16_" class="st13" d="M1215.5,351.7L1215.5,351.7c-2.5,0-4.5-2-4.5-4.5v-19.7l9-6.6v26.3
				C1220,349.7,1218,351.7,1215.5,351.7z"/>
			<path id="XMLID_15_" class="st13" d="M1224.6,355.8L1224.6,355.8c-2.5,0-4.6-2-4.6-4.6l-0.3-31.5h9.3l0.3,31.4
				C1229.3,353.7,1227.2,355.8,1224.6,355.8z"/>
			<path id="XMLID_14_" class="st13" d="M1233.5,351.7L1233.5,351.7c-2.5,0-4.5-2-4.5-4.5V321h9v26.3
				C1238,349.7,1236,351.7,1233.5,351.7z"/>
			<path id="XMLID_13_" class="st13" d="M1242.5,339.3L1242.5,339.3c-2.5,0-4.5-2-4.5-4.5V321h9v13.8
				C1246.9,337.2,1244.9,339.3,1242.5,339.3z"/>
		</g>
		<path id="XMLID_11_" class="st13" d="M1246.9,326.2v-6.6c0-1.5-0.3-3-0.9-4.4l-2.5-5.7l-23.8-0.6l-0.4,0.4
			c-5.7,5.2-8.3,12.6-8.3,20.3L1246.9,326.2z"/>
	</g>
	<path id="XMLID_9_" class="st13" d="M1003.9,123.6l-2.5-17.2V92.6c0-2.2-1.8-4-4-4l0,0c-2.3,0-4.2,2-4,4.3l1,15.4l-26.6,17.7
		l17,9.3L1003.9,123.6z"/>
	<g id="XMLID_4_">
		<path id="XMLID_8_" class="st20" d="M991.4,125.9h-24.5c-1.8,0-3.3-1.5-3.3-3.3v-6l3.3-20l-3.3-17.9v-4.1c0-1.8,1.5-3.3,3.3-3.3
			h24.5c1.8,0,3.3,1.5,3.3,3.3v4.1l-3.9,17.9l3.9,20.3v5.6C994.7,124.4,993.2,125.9,991.4,125.9z"/>
		<g id="XMLID_6_">
			<circle id="XMLID_7_" class="st17" cx="979.1" cy="116.6" r="4.4"/>
		</g>
		<rect id="XMLID_5_" x="963.6" y="78.8" class="st6" width="31.1" height="37.8"/>
	</g>
	<rect id="XMLID_3_" x="1147.7" y="28.4" class="st20" width="10.3" height="34.2"/>
	<path id="XMLID_2_" class="st23" d="M984.5,88.6c-2.9,0-5.2,2.3-5.2,5.2c0-2.9-2.3-5.2-5.2-5.2c-2.9,0-5.2,2.3-5.2,5.2
		c0,1.2,0.4,2.3,1.1,3.2c1,1.2,9.3,9.9,9.3,9.9s8.4-8.7,9.3-9.9c0.7-0.9,1.1-2,1.1-3.2C989.7,90.9,987.4,88.6,984.5,88.6z"/>
</g>
</svg>
